<?xml version="1.0" encoding="UTF-8"?>
<svg version="1.1" xmlns="http://www.w3.org/2000/svg" width="160" height="160">
<path d="M0 0 C3.3 0 6.6 0 10 0 C10 1.65 10 3.3 10 5 C11.65 5 13.3 5 15 5 C15 8.3 15 11.6 15 15 C13.35 15 11.7 15 10 15 C10 16.65 10 18.3 10 20 C8.35 20 6.7 20 5 20 C5 21.65 5 23.3 5 25 C3.35 25 1.7 25 0 25 C0 26.65 0 28.3 0 30 C6.6 30 13.2 30 20 30 C20 31.65 20 33.3 20 35 C21.65 35 23.3 35 25 35 C25 30.05 25 25.1 25 20 C26.65 20 28.3 20 30 20 C30 15.05 30 10.1 30 5 C31.65 5 33.3 5 35 5 C35 3.35 35 1.7 35 0 C38.3 0 41.6 0 45 0 C45 1.65 45 3.3 45 5 C46.65 5 48.3 5 50 5 C50 6.65 50 8.3 50 10 C51.65 10 53.3 10 55 10 C55 11.65 55 13.3 55 15 C56.65 15 58.3 15 60 15 C60 16.65 60 18.3 60 20 C61.65 20 63.3 20 65 20 C65 23.3 65 26.6 65 30 C66.65 30 68.3 30 70 30 C70 31.65 70 33.3 70 35 C71.65 35 73.3 35 75 35 C75 36.65 75 38.3 75 40 C76.65 40 78.3 40 80 40 C80 43.3 80 46.6 80 50 C78.35 50 76.7 50 75 50 C75 51.65 75 53.3 75 55 C68.4 55 61.8 55 55 55 C55 56.65 55 58.3 55 60 C50.05 60 45.1 60 40 60 C40 61.65 40 63.3 40 65 C38.35 65 36.7 65 35 65 C35 69.95 35 74.9 35 80 C33.35 80 31.7 80 30 80 C30 81.65 30 83.3 30 85 C26.7 85 23.4 85 20 85 C20 83.35 20 81.7 20 80 C18.35 80 16.7 80 15 80 C15 73.4 15 66.8 15 60 C16.65 60 18.3 60 20 60 C20 56.7 20 53.4 20 50 C18.35 50 16.7 50 15 50 C15 51.65 15 53.3 15 55 C13.35 55 11.7 55 10 55 C10 56.65 10 58.3 10 60 C6.7 60 3.4 60 0 60 C0 61.65 0 63.3 0 65 C-1.65 65 -3.3 65 -5 65 C-5 66.65 -5 68.3 -5 70 C-6.65 70 -8.3 70 -10 70 C-10 71.65 -10 73.3 -10 75 C-13.3 75 -16.6 75 -20 75 C-20 76.65 -20 78.3 -20 80 C-21.65 80 -23.3 80 -25 80 C-25 81.65 -25 83.3 -25 85 C-28.3 85 -31.6 85 -35 85 C-35 83.35 -35 81.7 -35 80 C-36.65 80 -38.3 80 -40 80 C-40 76.7 -40 73.4 -40 70 C-38.35 70 -36.7 70 -35 70 C-35 68.35 -35 66.7 -35 65 C-33.35 65 -31.7 65 -30 65 C-30 63.35 -30 61.7 -30 60 C-33.3 60 -36.6 60 -40 60 C-40 58.35 -40 56.7 -40 55 C-41.65 55 -43.3 55 -45 55 C-45 51.7 -45 48.4 -45 45 C-43.35 45 -41.7 45 -40 45 C-40 43.35 -40 41.7 -40 40 C-38.35 40 -36.7 40 -35 40 C-35 38.35 -35 36.7 -35 35 C-33.35 35 -31.7 35 -30 35 C-30 33.35 -30 31.7 -30 30 C-28.35 30 -26.7 30 -25 30 C-25 28.35 -25 26.7 -25 25 C-23.35 25 -21.7 25 -20 25 C-20 23.35 -20 21.7 -20 20 C-18.35 20 -16.7 20 -15 20 C-15 18.35 -15 16.7 -15 15 C-13.35 15 -11.7 15 -10 15 C-10 13.35 -10 11.7 -10 10 C-8.35 10 -6.7 10 -5 10 C-5 8.35 -5 6.7 -5 5 C-3.35 5 -1.7 5 0 5 C0 3.35 0 1.7 0 0 Z M-5 30 C-5 31.65 -5 33.3 -5 35 C-3.35 35 -1.7 35 0 35 C0 33.35 0 31.7 0 30 C-1.65 30 -3.3 30 -5 30 Z " fill="#FFFFFF" transform="translate(60,40)"/>
<path d="M0 0 C3.3 0 6.6 0 10 0 C10 1.65 10 3.3 10 5 C11.65 5 13.3 5 15 5 C15 6.65 15 8.3 15 10 C16.65 10 18.3 10 20 10 C20 11.65 20 13.3 20 15 C21.65 15 23.3 15 25 15 C25 16.65 25 18.3 25 20 C26.65 20 28.3 20 30 20 C30 23.3 30 26.6 30 30 C31.65 30 33.3 30 35 30 C35 31.65 35 33.3 35 35 C36.65 35 38.3 35 40 35 C40 36.65 40 38.3 40 40 C41.65 40 43.3 40 45 40 C45 43.3 45 46.6 45 50 C43.35 50 41.7 50 40 50 C40 51.65 40 53.3 40 55 C33.4 55 26.8 55 20 55 C20 56.65 20 58.3 20 60 C15.05 60 10.1 60 5 60 C5 61.65 5 63.3 5 65 C3.35 65 1.7 65 0 65 C0 69.95 0 74.9 0 80 C-1.65 80 -3.3 80 -5 80 C-5 81.65 -5 83.3 -5 85 C-8.3 85 -11.6 85 -15 85 C-15 83.35 -15 81.7 -15 80 C-16.65 80 -18.3 80 -20 80 C-20 73.4 -20 66.8 -20 60 C-16.7 60 -13.4 60 -10 60 C-10 53.4 -10 46.8 -10 40 C-8.35 40 -6.7 40 -5 40 C-5 28.45 -5 16.9 -5 5 C-3.35 5 -1.7 5 0 5 C0 3.35 0 1.7 0 0 Z " fill="#FFFFFF" transform="translate(95,40)"/>
<path d="M0 0 C4.95 0 9.9 0 15 0 C15 6.6 15 13.2 15 20 C13.35 20 11.7 20 10 20 C10 21.65 10 23.3 10 25 C6.7 25 3.4 25 0 25 C0 26.65 0 28.3 0 30 C-1.65 30 -3.3 30 -5 30 C-5 31.65 -5 33.3 -5 35 C-8.3 35 -11.6 35 -15 35 C-15 33.35 -15 31.7 -15 30 C-16.65 30 -18.3 30 -20 30 C-20 26.7 -20 23.4 -20 20 C-18.35 20 -16.7 20 -15 20 C-15 18.35 -15 16.7 -15 15 C-13.35 15 -11.7 15 -10 15 C-10 13.35 -10 11.7 -10 10 C-13.3 10 -16.6 10 -20 10 C-20 8.35 -20 6.7 -20 5 C-13.4 5 -6.8 5 0 5 C0 3.35 0 1.7 0 0 Z " fill="#FFFFFF" transform="translate(40,90)"/>
<path d="M0 0 C1.65 0 3.3 0 5 0 C5 1.65 5 3.3 5 5 C6.65 5 8.3 5 10 5 C10 6.65 10 8.3 10 10 C11.65 10 13.3 10 15 10 C15 13.3 15 16.6 15 20 C13.35 20 11.7 20 10 20 C10 21.65 10 23.3 10 25 C3.4 25 -3.2 25 -10 25 C-10 23.35 -10 21.7 -10 20 C-5.05 20 -0.1 20 5 20 C5 18.35 5 16.7 5 15 C3.35 15 1.7 15 0 15 C0 10.05 0 5.1 0 0 Z " fill="#9E99BD" transform="translate(125,70)"/>
<path d="M0 0 C1.65 0 3.3 0 5 0 C5 6.6 5 13.2 5 20 C3.35 20 1.7 20 0 20 C0 26.6 0 33.2 0 40 C-1.65 40 -3.3 40 -5 40 C-5 36.7 -5 33.4 -5 30 C-6.65 30 -8.3 30 -10 30 C-10 28.35 -10 26.7 -10 25 C-8.35 25 -6.7 25 -5 25 C-5 21.7 -5 18.4 -5 15 C-3.35 15 -1.7 15 0 15 C0 10.05 0 5.1 0 0 Z " fill="#100E1C" transform="translate(85,60)"/>
<path d="M0 0 C4.95 0 9.9 0 15 0 C15 1.65 15 3.3 15 5 C11.7 5 8.4 5 5 5 C5 6.65 5 8.3 5 10 C1.7 10 -1.6 10 -5 10 C-5 11.65 -5 13.3 -5 15 C-6.65 15 -8.3 15 -10 15 C-10 13.35 -10 11.7 -10 10 C-13.3 10 -16.6 10 -20 10 C-20 8.35 -20 6.7 -20 5 C-13.4 5 -6.8 5 0 5 C0 3.35 0 1.7 0 0 Z " fill="#100E1C" transform="translate(40,90)"/>
<path d="M0 0 C3.3 0 6.6 0 10 0 C10 3.3 10 6.6 10 10 C11.65 10 13.3 10 15 10 C15 11.65 15 13.3 15 15 C13.35 15 11.7 15 10 15 C10 16.65 10 18.3 10 20 C6.7 20 3.4 20 0 20 C0 13.4 0 6.8 0 0 Z " fill="#100E1C" transform="translate(100,65)"/>
<path d="M0 0 C3.3 0 6.6 0 10 0 C10 4.95 10 9.9 10 15 C8.35 15 6.7 15 5 15 C5 16.65 5 18.3 5 20 C1.7 20 -1.6 20 -5 20 C-5 18.35 -5 16.7 -5 15 C-3.35 15 -1.7 15 0 15 C0 10.05 0 5.1 0 0 Z " fill="#9E99BD" transform="translate(85,105)"/>
<path d="M0 0 C8.25 0 16.5 0 25 0 C25 1.65 25 3.3 25 5 C20.05 5 15.1 5 10 5 C10 6.65 10 8.3 10 10 C8.35 10 6.7 10 5 10 C5 8.35 5 6.7 5 5 C3.35 5 1.7 5 0 5 C0 3.35 0 1.7 0 0 Z " fill="#100E1C" transform="translate(90,95)"/>
<path d="M0 0 C4.95 0 9.9 0 15 0 C15 1.65 15 3.3 15 5 C13.35 5 11.7 5 10 5 C10 6.65 10 8.3 10 10 C6.7 10 3.4 10 0 10 C0 6.7 0 3.4 0 0 Z " fill="#9E99BD" transform="translate(40,105)"/>
<path d="M0 0 C4.95 0 9.9 0 15 0 C15 1.65 15 3.3 15 5 C13.35 5 11.7 5 10 5 C10 6.65 10 8.3 10 10 C6.7 10 3.4 10 0 10 C0 6.7 0 3.4 0 0 Z " fill="#9E99BD" transform="translate(60,90)"/>
<path d="M0 0 C1.65 0 3.3 0 5 0 C5 6.6 5 13.2 5 20 C3.35 20 1.7 20 0 20 C0 13.4 0 6.8 0 0 Z " fill="#100E1C" transform="translate(75,100)"/>
<path d="M0 0 C6.6 0 13.2 0 20 0 C20 1.65 20 3.3 20 5 C13.4 5 6.8 5 0 5 C0 3.35 0 1.7 0 0 Z " fill="#100E1C" transform="translate(115,90)"/>
<path d="M0 0 C6.6 0 13.2 0 20 0 C20 1.65 20 3.3 20 5 C13.4 5 6.8 5 0 5 C0 3.35 0 1.7 0 0 Z " fill="#100E1C" transform="translate(60,70)"/>
<path d="M0 0 C1.65 0 3.3 0 5 0 C5 1.65 5 3.3 5 5 C6.65 5 8.3 5 10 5 C10 6.65 10 8.3 10 10 C5.05 10 0.1 10 -5 10 C-5 8.35 -5 6.7 -5 5 C-3.35 5 -1.7 5 0 5 C0 3.35 0 1.7 0 0 Z " fill="#100E1C" transform="translate(50,70)"/>
<path d="M0 0 C1.65 0 3.3 0 5 0 C5 4.95 5 9.9 5 15 C3.35 15 1.7 15 0 15 C0 10.05 0 5.1 0 0 Z " fill="#100E1C" transform="translate(90,105)"/>
<path d="M0 0 C1.65 0 3.3 0 5 0 C5 4.95 5 9.9 5 15 C3.35 15 1.7 15 0 15 C0 10.05 0 5.1 0 0 Z " fill="#100E1C" transform="translate(90,45)"/>
<path d="M0 0 C3.3 0 6.6 0 10 0 C10 1.65 10 3.3 10 5 C6.7 5 3.4 5 0 5 C0 3.35 0 1.7 0 0 Z " fill="#100E1C" transform="translate(80,120)"/>
<path d="M0 0 C3.3 0 6.6 0 10 0 C10 1.65 10 3.3 10 5 C6.7 5 3.4 5 0 5 C0 3.35 0 1.7 0 0 Z " fill="#100E1C" transform="translate(25,120)"/>
<path d="M0 0 C3.3 0 6.6 0 10 0 C10 1.65 10 3.3 10 5 C6.7 5 3.4 5 0 5 C0 3.35 0 1.7 0 0 Z " fill="#100E1C" transform="translate(40,110)"/>
<path d="M0 0 C1.65 0 3.3 0 5 0 C5 3.3 5 6.6 5 10 C3.35 10 1.7 10 0 10 C0 6.7 0 3.4 0 0 Z " fill="#100E1C" transform="translate(20,110)"/>
<path d="M0 0 C3.3 0 6.6 0 10 0 C10 1.65 10 3.3 10 5 C6.7 5 3.4 5 0 5 C0 3.35 0 1.7 0 0 Z " fill="#100E1C" transform="translate(60,95)"/>
<path d="M0 0 C1.65 0 3.3 0 5 0 C5 3.3 5 6.6 5 10 C3.35 10 1.7 10 0 10 C0 6.7 0 3.4 0 0 Z " fill="#100E1C" transform="translate(15,85)"/>
<path d="M0 0 C1.65 0 3.3 0 5 0 C5 3.3 5 6.6 5 10 C3.35 10 1.7 10 0 10 C0 6.7 0 3.4 0 0 Z " fill="#100E1C" transform="translate(135,80)"/>
<path d="M0 0 C1.65 0 3.3 0 5 0 C5 3.3 5 6.6 5 10 C3.35 10 1.7 10 0 10 C0 6.7 0 3.4 0 0 Z " fill="#9E99BD" transform="translate(75,75)"/>
<path d="M0 0 C1.65 0 3.3 0 5 0 C5 3.3 5 6.6 5 10 C3.35 10 1.7 10 0 10 C0 6.7 0 3.4 0 0 Z " fill="#100E1C" transform="translate(120,60)"/>
<path d="M0 0 C1.65 0 3.3 0 5 0 C5 3.3 5 6.6 5 10 C3.35 10 1.7 10 0 10 C0 6.7 0 3.4 0 0 Z " fill="#100E1C" transform="translate(70,45)"/>
<path d="M0 0 C3.3 0 6.6 0 10 0 C10 1.65 10 3.3 10 5 C6.7 5 3.4 5 0 5 C0 3.35 0 1.7 0 0 Z " fill="#100E1C" transform="translate(95,40)"/>
<path d="M0 0 C3.3 0 6.6 0 10 0 C10 1.65 10 3.3 10 5 C6.7 5 3.4 5 0 5 C0 3.35 0 1.7 0 0 Z " fill="#100E1C" transform="translate(60,40)"/>
<path d="M0 0 C1.65 0 3.3 0 5 0 C5 1.65 5 3.3 5 5 C3.35 5 1.7 5 0 5 C0 3.35 0 1.7 0 0 Z " fill="#100E1C" transform="translate(35,115)"/>
<path d="M0 0 C1.65 0 3.3 0 5 0 C5 1.65 5 3.3 5 5 C3.35 5 1.7 5 0 5 C0 3.35 0 1.7 0 0 Z " fill="#9E99BD" transform="translate(30,115)"/>
<path d="M0 0 C1.65 0 3.3 0 5 0 C5 1.65 5 3.3 5 5 C3.35 5 1.7 5 0 5 C0 3.35 0 1.7 0 0 Z " fill="#9E99BD" transform="translate(35,110)"/>
<path d="M0 0 C1.65 0 3.3 0 5 0 C5 1.65 5 3.3 5 5 C3.35 5 1.7 5 0 5 C0 3.35 0 1.7 0 0 Z " fill="#100E1C" transform="translate(50,105)"/>
<path d="M0 0 C1.65 0 3.3 0 5 0 C5 1.65 5 3.3 5 5 C3.35 5 1.7 5 0 5 C0 3.35 0 1.7 0 0 Z " fill="#100E1C" transform="translate(25,105)"/>
<path d="M0 0 C1.65 0 3.3 0 5 0 C5 1.65 5 3.3 5 5 C3.35 5 1.7 5 0 5 C0 3.35 0 1.7 0 0 Z " fill="#9E99BD" transform="translate(90,100)"/>
<path d="M0 0 C1.65 0 3.3 0 5 0 C5 1.65 5 3.3 5 5 C3.35 5 1.7 5 0 5 C0 3.35 0 1.7 0 0 Z " fill="#100E1C" transform="translate(55,100)"/>
<path d="M0 0 C1.65 0 3.3 0 5 0 C5 1.65 5 3.3 5 5 C3.35 5 1.7 5 0 5 C0 3.35 0 1.7 0 0 Z " fill="#9E99BD" transform="translate(50,100)"/>
<path d="M0 0 C1.65 0 3.3 0 5 0 C5 1.65 5 3.3 5 5 C3.35 5 1.7 5 0 5 C0 3.35 0 1.7 0 0 Z " fill="#9E99BD" transform="translate(55,95)"/>
<path d="M0 0 C1.65 0 3.3 0 5 0 C5 1.65 5 3.3 5 5 C3.35 5 1.7 5 0 5 C0 3.35 0 1.7 0 0 Z " fill="#100E1C" transform="translate(70,90)"/>
<path d="M0 0 C1.65 0 3.3 0 5 0 C5 1.65 5 3.3 5 5 C3.35 5 1.7 5 0 5 C0 3.35 0 1.7 0 0 Z " fill="#9E99BD" transform="translate(70,85)"/>
<path d="M0 0 C1.65 0 3.3 0 5 0 C5 1.65 5 3.3 5 5 C3.35 5 1.7 5 0 5 C0 3.35 0 1.7 0 0 Z " fill="#100E1C" transform="translate(40,80)"/>
<path d="M0 0 C1.65 0 3.3 0 5 0 C5 1.65 5 3.3 5 5 C3.35 5 1.7 5 0 5 C0 3.35 0 1.7 0 0 Z " fill="#100E1C" transform="translate(20,80)"/>
<path d="M0 0 C1.65 0 3.3 0 5 0 C5 1.65 5 3.3 5 5 C3.35 5 1.7 5 0 5 C0 3.35 0 1.7 0 0 Z " fill="#100E1C" transform="translate(130,75)"/>
<path d="M0 0 C1.65 0 3.3 0 5 0 C5 1.65 5 3.3 5 5 C3.35 5 1.7 5 0 5 C0 3.35 0 1.7 0 0 Z " fill="#100E1C" transform="translate(25,75)"/>
<path d="M0 0 C1.65 0 3.3 0 5 0 C5 1.65 5 3.3 5 5 C3.35 5 1.7 5 0 5 C0 3.35 0 1.7 0 0 Z " fill="#100E1C" transform="translate(125,70)"/>
<path d="M0 0 C1.65 0 3.3 0 5 0 C5 1.65 5 3.3 5 5 C3.35 5 1.7 5 0 5 C0 3.35 0 1.7 0 0 Z " fill="#9E99BD" transform="translate(120,70)"/>
<path d="M0 0 C1.65 0 3.3 0 5 0 C5 1.65 5 3.3 5 5 C3.35 5 1.7 5 0 5 C0 3.35 0 1.7 0 0 Z " fill="#100E1C" transform="translate(30,70)"/>
<path d="M0 0 C1.65 0 3.3 0 5 0 C5 1.65 5 3.3 5 5 C3.35 5 1.7 5 0 5 C0 3.35 0 1.7 0 0 Z " fill="#100E1C" transform="translate(55,65)"/>
<path d="M0 0 C1.65 0 3.3 0 5 0 C5 1.65 5 3.3 5 5 C3.35 5 1.7 5 0 5 C0 3.35 0 1.7 0 0 Z " fill="#100E1C" transform="translate(35,65)"/>
<path d="M0 0 C1.65 0 3.3 0 5 0 C5 1.65 5 3.3 5 5 C3.35 5 1.7 5 0 5 C0 3.35 0 1.7 0 0 Z " fill="#100E1C" transform="translate(60,60)"/>
<path d="M0 0 C1.65 0 3.3 0 5 0 C5 1.65 5 3.3 5 5 C3.35 5 1.7 5 0 5 C0 3.35 0 1.7 0 0 Z " fill="#100E1C" transform="translate(40,60)"/>
<path d="M0 0 C1.65 0 3.3 0 5 0 C5 1.65 5 3.3 5 5 C3.35 5 1.7 5 0 5 C0 3.35 0 1.7 0 0 Z " fill="#100E1C" transform="translate(115,55)"/>
<path d="M0 0 C1.65 0 3.3 0 5 0 C5 1.65 5 3.3 5 5 C3.35 5 1.7 5 0 5 C0 3.35 0 1.7 0 0 Z " fill="#100E1C" transform="translate(65,55)"/>
<path d="M0 0 C1.65 0 3.3 0 5 0 C5 1.65 5 3.3 5 5 C3.35 5 1.7 5 0 5 C0 3.35 0 1.7 0 0 Z " fill="#100E1C" transform="translate(45,55)"/>
<path d="M0 0 C1.65 0 3.3 0 5 0 C5 1.65 5 3.3 5 5 C3.35 5 1.7 5 0 5 C0 3.35 0 1.7 0 0 Z " fill="#100E1C" transform="translate(110,50)"/>
<path d="M0 0 C1.65 0 3.3 0 5 0 C5 1.65 5 3.3 5 5 C3.35 5 1.7 5 0 5 C0 3.35 0 1.7 0 0 Z " fill="#100E1C" transform="translate(50,50)"/>
<path d="M0 0 C1.65 0 3.3 0 5 0 C5 1.65 5 3.3 5 5 C3.35 5 1.7 5 0 5 C0 3.35 0 1.7 0 0 Z " fill="#100E1C" transform="translate(105,45)"/>
<path d="M0 0 C1.65 0 3.3 0 5 0 C5 1.65 5 3.3 5 5 C3.35 5 1.7 5 0 5 C0 3.35 0 1.7 0 0 Z " fill="#100E1C" transform="translate(55,45)"/>
</svg>
